<svg width="20" height="20" viewBox="0 0 20 20" fill="none" xmlns="http://www.w3.org/2000/svg">
<path fill-rule="evenodd" clip-rule="evenodd" d="M7.44271 2.93243L10.0121 2.24397L12.591 4.14114L10.0216 4.82961L7.44271 2.93243ZM14.5229 3.6235L11.944 1.72633L14.523 1.03529L17.1019 2.93246L14.5229 3.6235ZM19.0337 2.41482L18.3867 9.65595e-06L16.4548 0.517648L19.0337 2.41482ZM5.51086 3.45007L2.93185 4.14111L5.51075 6.03829L8.08976 5.34725L5.51086 3.45007ZM1 4.65875L3.5789 6.55593L1.64705 7.07357L1 4.65875Z" fill="white"/>
<path fill-rule="evenodd" clip-rule="evenodd" d="M1.65002 7.5H3.65002L1.65002 10V7.5ZM3.65002 10L5.65002 7.5H8.32001L6.32001 10H3.65002ZM8.32001 10H10.98L12.98 7.5H10.32L8.32001 10ZM15.65 10H12.98L14.98 7.5H17.65L15.65 10ZM17.65 10H19.65V7.5L17.65 10Z" fill="white"/>
<path d="M1.65002 18V10H3.65002V16C3.65002 17.1046 4.54545 18 5.65002 18H15.65C16.7546 18 17.65 17.1046 17.65 16V10H19.65V18C19.65 19.1046 18.7546 20 17.65 20H3.65002C2.54545 20 1.65002 19.1046 1.65002 18Z" fill="white"/>
</svg>
