<svg width="16" height="16" viewBox="0 0 16 16" fill="none" xmlns="http://www.w3.org/2000/svg">
<g clip-path="url(#clip0_38_47)">
<path d="M16 1C16 0.447715 15.5523 0 15 0C14.4477 0 14 0.447715 14 1V15C14 15.5523 14.4477 16 15 16C15.5523 16 16 15.5523 16 15V1Z" fill="white"/>
<path d="M1 7H10C10.5523 7 11 7.44772 11 8C11 8.55228 10.5523 9 10 9H1V7Z" fill="white"/>
<path d="M4.37868 3.20711L0.292894 7.29289C-0.0976307 7.68342 -0.0976316 8.31658 0.292893 8.70711L4.37868 12.7929C4.51129 12.9255 4.69114 13 4.87868 13C5.50864 13 5.82413 12.2383 5.37868 11.7929L1.58579 8L5.37868 4.20711C5.82413 3.76165 5.50865 3 4.87868 3C4.69114 3 4.51129 3.0745 4.37868 3.20711Z" fill="white"/>
</g>
<defs>
<clipPath id="clip0_38_47">
<rect width="16" height="16" fill="white"/>
</clipPath>
</defs>
</svg>
