<svg width="16" height="16" viewBox="0 0 16 16" fill="none" xmlns="http://www.w3.org/2000/svg">
<path fill-rule="evenodd" clip-rule="evenodd" d="M8 14.5C11.5899 14.5 14.5 11.5899 14.5 8C14.5 4.41015 11.5899 1.5 8 1.5C4.41015 1.5 1.5 4.41015 1.5 8C1.5 11.5899 4.41015 14.5 8 14.5ZM8 16C12.4183 16 16 12.4183 16 8C16 3.58172 12.4183 0 8 0C3.58172 0 0 3.58172 0 8C0 12.4183 3.58172 16 8 16Z" fill="white"/>
<circle cx="5.25" cy="6.25" r="1.25" fill="white"/>
<circle cx="10.75" cy="6.25" r="1.25" fill="white"/>
<path fill-rule="evenodd" clip-rule="evenodd" d="M5.06913 9.51159C5.79241 10.3241 6.89204 11 7.99998 11C9.10682 11 10.2097 10.3245 10.9313 9.51099C10.9289 9.51389 12.0705 10.4869 12.0691 10.4885C11.0791 11.6389 9.53077 12.5 7.99998 12.5C6.4678 12.5 4.92449 11.6386 3.93208 10.4899C3.92801 10.4852 5.07081 9.51356 5.06913 9.51159Z" fill="white"/>
<circle cx="4.5" cy="10" r="0.75" fill="white"/>
<circle cx="11.5" cy="10" r="0.75" fill="white"/>
</svg>
