<svg width="16" height="16" viewBox="0 0 16 16" fill="none" xmlns="http://www.w3.org/2000/svg">
<g clip-path="url(#clip0_38_58)">
<path fill-rule="evenodd" clip-rule="evenodd" d="M7.8639 1.96728C7.02874 1.18144 5.90393 0.699951 4.66669 0.699951C2.08936 0.699951 0 2.78931 0 5.36664C0 6.63837 0.508667 7.7912 1.33368 8.63293L8 15.3L14.6666 8.6333C15.4916 7.79156 16 6.63837 16 5.36664C16 2.78931 13.9107 0.699951 11.3334 0.699951C10.0961 0.699951 8.97134 1.18144 8.13613 1.96726C8.08985 2.0108 8.04447 2.05527 8 2.10065C7.95554 2.05528 7.91017 2.01081 7.8639 1.96728ZM13.2443 7.22717C13.7138 6.74507 14 6.09141 14 5.36664C14 3.89384 12.8061 2.69995 11.3334 2.69995C10.5868 2.69995 9.91485 3.00413 9.42846 3.50046L7.99995 4.95821L6.57149 3.50041C6.08519 3.00413 5.41327 2.69995 4.66669 2.69995C3.19392 2.69995 2 3.89387 2 5.36664C2 6.09093 2.28611 6.74437 2.756 7.22683L8.00007 12.4715L13.2443 7.22717Z" fill="white"/>
</g>
<defs>
<clipPath id="clip0_38_58">
<rect width="16" height="16" fill="white"/>
</clipPath>
</defs>
</svg>
