<svg width="20" height="20" viewBox="0 0 20 20" fill="none" xmlns="http://www.w3.org/2000/svg">
<g clip-path="url(#clip0_301_28)">
<path d="M16.8264 15.9685C16.418 15.5601 15.7514 15.5905 15.3201 15.9747C13.9064 17.2345 12.0426 18 10 18C5.58172 18 2 14.4183 2 10C2 5.58172 5.58172 2 10 2C12.1063 2 14.0225 2.81403 15.4512 4.14466C15.88 4.54404 16.559 4.58317 16.9733 4.16881C17.3381 3.80402 17.3651 3.2161 16.9965 2.85513C15.193 1.08891 12.7237 0 10 0C4.47715 0 0 4.47715 0 10C0 15.5228 4.47715 20 10 20C12.6437 20 15.0478 18.9741 16.8359 17.2987C17.2189 16.9399 17.1975 16.3397 16.8264 15.9685Z" fill="white"/>
<path d="M18.2929 1.20713C18.9229 0.577164 20 1.02333 20 1.91424V6.50002C20 7.05231 19.5523 7.50002 19 7.50002H14.4142C13.5233 7.50002 13.0772 6.42288 13.7071 5.79292L18.2929 1.20713Z" fill="white"/>
</g>
<defs>
<clipPath id="clip0_301_28">
<rect width="20" height="20" fill="white"/>
</clipPath>
</defs>
</svg>
