<svg width="20" height="20" viewBox="0 0 20 20" fill="none" xmlns="http://www.w3.org/2000/svg">
<g clip-path="url(#clip0_301_26)">
<path fill-rule="evenodd" clip-rule="evenodd" d="M7.40993 0H12.4099L12.6586 2.48448C13.5352 2.80514 14.34 3.27478 15.0423 3.86275L17.3205 2.83437L19.8205 7.1645L17.7921 8.6229C17.8697 9.07024 17.9102 9.53032 17.9102 9.99985C17.9102 10.4692 17.8697 10.929 17.7922 11.3762L19.8209 12.8347L17.3209 17.1648L15.0428 16.1366C14.3403 16.7247 13.5354 17.1945 12.6586 17.5152L12.4099 20H7.40993L7.1617 17.5152C6.28505 17.1945 5.4802 16.7248 4.77781 16.1368L2.49994 17.1645L0 12.8345L2.02819 11.3767C1.9506 10.9294 1.91016 10.4693 1.91016 9.99985C1.91016 9.53015 1.95063 9.0699 2.02829 8.62241L0.000461201 7.16485L2.50046 2.83472L4.77825 3.86253C5.48055 3.27466 6.28525 2.80509 7.16172 2.48447L7.40993 0ZM9.91016 12.9998C11.567 12.9998 12.9102 11.6567 12.9102 9.99985C12.9102 8.34299 11.567 6.99985 9.91016 6.99985C8.2533 6.99985 6.91016 8.34299 6.91016 9.99985C6.91016 11.6567 8.2533 12.9998 9.91016 12.9998Z" fill="white"/>
</g>
<defs>
<clipPath id="clip0_301_26">
<rect width="20" height="20" fill="white"/>
</clipPath>
</defs>
</svg>
