<svg width="16" height="16" viewBox="0 0 16 16" fill="none" xmlns="http://www.w3.org/2000/svg">
<path fill-rule="evenodd" clip-rule="evenodd" d="M8 9.5C8.82843 9.5 9.5 8.82843 9.5 8C9.5 7.17157 8.82843 6.5 8 6.5C7.17157 6.5 6.5 7.17157 6.5 8C6.5 8.82843 7.17157 9.5 8 9.5ZM8 11C9.65685 11 11 9.65685 11 8C11 6.34315 9.65685 5 8 5C6.34315 5 5 6.34315 5 8C5 9.65685 6.34315 11 8 11Z" fill="white"/>
<path fill-rule="evenodd" clip-rule="evenodd" d="M9.93131 0C10.4316 0 10.8543 0.372582 10.919 0.870642L11.0257 1.69217C11.3403 1.8445 11.6416 2.01973 11.9275 2.21566L12.6903 1.89737C13.1523 1.7046 13.685 1.8858 13.9351 2.32079L15.8665 5.67928C16.1166 6.11428 16.0066 6.66809 15.6093 6.97338L14.953 7.47766C14.9657 7.6503 14.9722 7.8245 14.9722 8C14.9722 8.17555 14.9657 8.34977 14.953 8.52241L15.6093 9.02665C16.0066 9.33194 16.1166 9.88576 15.8665 10.3208L13.9351 13.6793C13.685 14.1143 13.1522 14.2955 12.6902 14.1027L11.9274 13.7844C11.6416 13.9803 11.3403 14.1555 11.0257 14.3078L10.919 15.1294C10.8543 15.6274 10.4316 16 9.93131 16H6.06863C5.56835 16 5.14568 15.6274 5.08096 15.1294L4.97422 14.3079C4.6596 14.1556 4.3583 13.9804 4.07245 13.7844L3.30977 14.1027C2.84778 14.2955 2.31503 14.1143 2.06488 13.6793L0.133516 10.3208C-0.11664 9.88576 -0.00656164 9.33196 0.390741 9.02667L1.0468 8.52254C1.03407 8.34982 1.02761 8.17555 1.02761 8C1.02761 7.82443 1.03408 7.6502 1.04681 7.47754L0.390719 6.97336C-0.00655986 6.66806 -0.116624 6.11427 0.133525 5.67927L2.06488 2.32078C2.31503 1.88577 2.84778 1.70457 3.30977 1.89737L4.07242 2.21562C4.35827 2.01969 4.65958 1.84442 4.97422 1.69207L5.08096 0.870636C5.14568 0.372579 5.56835 0 6.06864 0H9.93131ZM4.3067 3.93781L3.14013 3.45099L1.64606 6.04907L2.64825 6.81921C2.56538 7.19958 2.52167 7.59467 2.52167 8C2.52167 8.40533 2.56532 8.80054 2.64825 9.18091L1.64606 9.95099L3.14013 12.5491L4.3067 12.0623C4.88527 12.5928 5.57765 13.0004 6.34267 13.2438L6.5059 14.5H9.49403L9.65726 13.2438C10.4223 13.0002 11.1146 12.5927 11.6932 12.0622L12.8599 12.5491L14.3539 9.95099L13.3516 9.18079C13.4344 8.80042 13.4781 8.40533 13.4781 8C13.4781 7.59473 13.4345 7.19965 13.3516 6.81927L14.3539 6.04907L12.8599 3.45099L11.6932 3.93781C11.1146 3.40729 10.4223 2.99976 9.65726 2.75623L9.49403 1.5H6.5059L6.34267 2.75616C5.57759 2.99963 4.88527 3.40729 4.3067 3.93781Z" fill="white"/>
</svg>
