<svg width="20" height="20" viewBox="0 0 20 20" fill="none" xmlns="http://www.w3.org/2000/svg">
<g clip-path="url(#clip0_301_24)">
<path d="M1 5.00187H4.5L9.39029 0.209217C9.57775 0.0650161 9.78914 1.64682e-05 9.99558 3.12889e-09C9.99553 -1.04296e-09 9.99564 -1.04296e-09 9.99558 3.12889e-09C10.5133 4.1293e-05 11 0.408734 11 1.00184V19.0019C11 19.5621 10.5659 19.9578 10.0814 20H9.91018C9.73143 19.9843 9.55196 19.9189 9.39029 19.7945L4.5 15.0019H1C0.447715 15.0019 0 14.5542 0 14.0019V6.00187C0 5.44958 0.447715 5.00187 1 5.00187Z" fill="white"/>
<path d="M13 14L12 13L19 6L20 7L13 14Z" fill="white"/>
<path d="M19 14L20 13L13 6L12 7L19 14Z" fill="white"/>
</g>
<defs>
<clipPath id="clip0_301_24">
<rect width="20" height="20" fill="white"/>
</clipPath>
</defs>
</svg>
