<svg width="20" height="20" viewBox="0 0 20 20" fill="none" xmlns="http://www.w3.org/2000/svg">
<g clip-path="url(#clip0_301_29)">
<path d="M12.8074 6.34328C12.4925 5.75945 12.9047 5 13.5681 5C13.8385 5 14.0912 5.13212 14.2351 5.36109C14.7636 6.20228 15.9999 8.34653 15.9999 10C15.9999 11.6535 14.7636 13.7977 14.2351 14.6389C14.0912 14.8679 13.8385 15 13.5681 15C12.9047 15 12.4925 14.2406 12.8074 13.6567C13.3626 12.6275 13.9999 11.1872 13.9999 10C13.9999 8.81277 13.3626 7.37251 12.8074 6.34328Z" fill="white"/>
<path d="M16.5716 4.31299C16.3221 3.69774 16.7697 3 17.4336 3C17.7799 3 18.0946 3.19735 18.2342 3.51426C18.7622 4.71352 20 7.76335 20 10C20 12.2367 18.7622 15.2865 18.2342 16.4857C18.0946 16.8026 17.7799 17 17.4336 17C16.7697 17 16.3221 16.3023 16.5716 15.687C17.1627 14.2293 18 11.8396 18 10C18 8.1604 17.1627 5.7707 16.5716 4.31299Z" fill="white"/>
<path d="M1 5.00187H4.5L9.39029 0.209217C9.57775 0.0650161 9.78914 1.64682e-05 9.99558 3.12889e-09C9.99553 -1.04296e-09 9.99564 -1.04296e-09 9.99558 3.12889e-09C10.5133 4.1293e-05 11 0.408734 11 1.00184V19.0019C11 19.5621 10.5659 19.9578 10.0814 20H9.91018C9.73143 19.9843 9.55196 19.9189 9.39029 19.7945L4.5 15.0019H1C0.447715 15.0019 0 14.5542 0 14.0019V6.00187C0 5.44958 0.447715 5.00187 1 5.00187Z" fill="white"/>
</g>
<defs>
<clipPath id="clip0_301_29">
<rect width="20" height="20" fill="white"/>
</clipPath>
</defs>
</svg>
