<svg width="16" height="16" viewBox="0 0 16 16" fill="none" xmlns="http://www.w3.org/2000/svg">
<path fill-rule="evenodd" clip-rule="evenodd" d="M16 15.9891C15.6583 14.6126 14.9648 13.2378 13.5975 12.5167C14.8439 11.8392 15.69 10.5184 15.69 9C15.69 6.79086 13.8991 5 11.69 5C10.5583 5 9.53647 5.46993 8.80885 6.22528C8.93297 5.83914 9 5.4274 9 5C9 2.79086 7.20914 1 5 1C2.79086 1 1 2.79086 1 5C1 6.44654 1.76785 7.71374 2.91819 8.41624C0.369659 9.58217 0 12.9146 0 14.75C0 15.5 0.0617284 16 0.0617284 16H1.5C1.5 16 1.51152 15.6007 1.5 15C1.5 14.9546 1.49956 14.9021 1.49906 14.843C1.48864 13.6009 1.45424 9.5 5 9.5C8.54576 9.5 8.51136 13.6009 8.50094 14.843C8.50044 14.9019 8.5 14.9547 8.5 15C8.48848 15.6007 8.5 16 8.5 16H16V15.9891ZM7.5 5C7.5 6.38071 6.38071 7.5 5 7.5C3.61929 7.5 2.5 6.38071 2.5 5C2.5 3.61929 3.61929 2.5 5 2.5C6.38071 2.5 7.5 3.61929 7.5 5ZM7.08181 8.41624C7.37528 8.23702 7.64386 8.02105 7.88114 7.77472C7.77983 8.08988 7.71656 8.4221 7.69672 8.76596C7.50734 8.63469 7.30276 8.51732 7.08181 8.41624Z" fill="white"/>
</svg>
