<svg width="16" height="16" viewBox="0 0 16 16" fill="none" xmlns="http://www.w3.org/2000/svg">
<path fill-rule="evenodd" clip-rule="evenodd" d="M10.0818 8.41624C11.2322 7.71373 12 6.44654 12 5C12 2.79086 10.2091 1 8 1C5.79086 1 4 2.79086 4 5C4 6.44654 4.76785 7.71374 5.9182 8.41624C2.32823 10.0586 3.06173 16 3.06173 16H4.54321C4.54321 16 4.04938 9.5 8 9.5C11.9506 9.5 11.4568 16 11.4568 16H12.9383C12.9383 16 13.6718 10.0586 10.0818 8.41624ZM10.5 5C10.5 6.38071 9.38071 7.5 8 7.5C6.61929 7.5 5.5 6.38071 5.5 5C5.5 3.61929 6.61929 2.5 8 2.5C9.38071 2.5 10.5 3.61929 10.5 5Z" fill="#E41710"/>
</svg>
