<svg width="16" height="16" viewBox="0 0 16 16" fill="none" xmlns="http://www.w3.org/2000/svg">
<g clip-path="url(#clip0_202_40)">
<path d="M1.85171 2.96242C1.84019 2.34429 2.34429 1.84019 2.96242 1.85171L3.80953 1.86748C4.21364 1.87501 4.58878 1.65842 4.78432 1.30469L5.19421 0.563184C5.49331 0.0221045 6.18191 -0.162406 6.71148 0.156633L7.43721 0.593849C7.78342 0.802423 8.21658 0.802422 8.56279 0.593849L9.28852 0.156633C9.81809 -0.162406 10.5067 0.0221049 10.8058 0.563185L11.2157 1.30469C11.4112 1.65842 11.7864 1.87501 12.1905 1.86748L13.0376 1.85171C13.6557 1.84019 14.1598 2.34429 14.1483 2.96243L14.1325 3.80953C14.125 4.21364 14.3416 4.58878 14.6953 4.78432L15.4368 5.19421C15.9779 5.49331 16.1624 6.18191 15.8434 6.71148L15.4062 7.43721C15.1976 7.78342 15.1976 8.21658 15.4062 8.56279L15.8434 9.28852C16.1624 9.81809 15.9779 10.5067 15.4368 10.8058L14.6953 11.2157C14.3416 11.4112 14.125 11.7864 14.1325 12.1905L14.1483 13.0376C14.1598 13.6557 13.6557 14.1598 13.0376 14.1483L12.1905 14.1325C11.7864 14.125 11.4112 14.3416 11.2157 14.6953L10.8058 15.4368C10.5067 15.9779 9.81809 16.1624 9.28852 15.8434L8.56279 15.4062C8.21658 15.1976 7.78342 15.1976 7.43721 15.4062L6.71148 15.8434C6.18191 16.1624 5.49331 15.9779 5.19421 15.4368L4.78432 14.6953C4.58878 14.3416 4.21364 14.125 3.80953 14.1325L2.96242 14.1483C2.34429 14.1598 1.84019 13.6557 1.85171 13.0376L1.86748 12.1905C1.87501 11.7864 1.65842 11.4112 1.30469 11.2157L0.563184 10.8058C0.0221044 10.5067 -0.162406 9.81809 0.156633 9.28852L0.593849 8.56279C0.802423 8.21658 0.802423 7.78342 0.593849 7.43721L0.156633 6.71148C-0.162406 6.18191 0.0221049 5.49331 0.563185 5.19421L1.30469 4.78432C1.65842 4.58878 1.87501 4.21364 1.86748 3.80953L1.85171 2.96242Z" fill="#576CD8"/>
<path d="M4.29317 7.76957C3.90228 8.16009 3.90228 8.79326 4.29317 9.18378L6.41646 11.3051C6.64438 11.5328 6.95486 11.6277 7.25163 11.5899C7.49763 11.562 7.73378 11.4435 7.90549 11.2391L11.7658 6.64281C12.1211 6.21974 12.0659 5.58898 11.6424 5.23398C11.219 4.87898 10.5876 4.93416 10.2323 5.35724L7.06671 9.12632L5.7087 7.76957C5.31781 7.37904 4.68405 7.37904 4.29317 7.76957Z" fill="white"/>
</g>
<defs>
<clipPath id="clip0_202_40">
<rect width="16" height="16" fill="white"/>
</clipPath>
</defs>
</svg>
